<?xml version="1.0" standalone="no"?>
<!DOCTYPE svg PUBLIC "-//W3C//DTD SVG 20010904//EN"
 "http://www.w3.org/TR/2001/REC-SVG-20010904/DTD/svg10.dtd">
<svg version="1.0" xmlns="http://www.w3.org/2000/svg"
 width="512.000000pt" height="512.000000pt" viewBox="0 0 512.000000 512.000000"
 preserveAspectRatio="xMidYMid meet">

<g transform="translate(0.000000,512.000000) scale(0.100000,-0.100000)"
fill="#000000" stroke="none">
<path d="M1375 5110 c-340 -48 -619 -268 -734 -580 -73 -198 -73 -432 0 -630
103 -278 342 -490 636 -562 123 -30 314 -30 428 1 325 87 567 330 657 658 30
111 30 325 0 436 -107 393 -438 664 -831 681 -53 3 -123 1 -156 -4z"/>
<path d="M3771 3546 l-355 -355 474 -481 474 -481 360 360 361 361 -475 475
c-261 261 -477 475 -480 475 -3 0 -165 -159 -359 -354z"/>
<path d="M1280 3066 c-634 -100 -1114 -568 -1226 -1196 -8 -47 -18 -172 -21
-277 l-6 -193 794 0 794 0 528 528 c290 290 527 532 527 538 0 15 -97 130
-177 207 -192 187 -447 322 -723 382 -102 22 -379 28 -490 11z"/>
</g>
</svg>
