<?xml version="1.0" encoding="UTF-8"?>
<svg xmlns="http://www.w3.org/2000/svg" version="1.1" width="300" height="300" viewBox="0 0 300 300"><rect x="0" y="0" width="300" height="300" fill="#ffffff"/><g transform="scale(9.091)"><g transform="translate(0,0)"><path fill-rule="evenodd" d="M9 0L9 1L8 1L8 2L9 2L9 3L8 3L8 4L10 4L10 7L11 7L11 4L12 4L12 5L13 5L13 6L12 6L12 9L14 9L14 10L11 10L11 11L10 11L10 9L11 9L11 8L6 8L6 9L7 9L7 10L5 10L5 11L4 11L4 12L3 12L3 13L4 13L4 12L5 12L5 11L7 11L7 12L6 12L6 13L7 13L7 14L5 14L5 15L7 15L7 16L3 16L3 15L4 15L4 14L2 14L2 15L1 15L1 16L0 16L0 19L1 19L1 21L0 21L0 25L1 25L1 22L2 22L2 25L3 25L3 23L4 23L4 24L5 24L5 25L7 25L7 24L8 24L8 27L9 27L9 28L8 28L8 33L9 33L9 32L10 32L10 33L11 33L11 32L12 32L12 31L10 31L10 30L14 30L14 31L15 31L15 33L20 33L20 32L22 32L22 33L29 33L29 32L30 32L30 33L32 33L32 32L31 32L31 31L32 31L32 30L31 30L31 29L30 29L30 28L31 28L31 27L32 27L32 26L33 26L33 24L32 24L32 25L31 25L31 22L33 22L33 21L32 21L32 20L33 20L33 19L32 19L32 18L31 18L31 19L30 19L30 17L29 17L29 16L31 16L31 17L33 17L33 16L32 16L32 15L30 15L30 13L29 13L29 12L31 12L31 14L33 14L33 13L32 13L32 12L33 12L33 11L32 11L32 10L33 10L33 9L32 9L32 8L31 8L31 9L30 9L30 8L29 8L29 9L30 9L30 10L28 10L28 12L27 12L27 11L26 11L26 10L27 10L27 9L28 9L28 8L27 8L27 9L26 9L26 8L25 8L25 6L24 6L24 9L26 9L26 10L25 10L25 14L26 14L26 12L27 12L27 13L29 13L29 14L28 14L28 15L29 15L29 16L28 16L28 17L27 17L27 18L24 18L24 17L23 17L23 16L22 16L22 15L23 15L23 13L21 13L21 14L22 14L22 15L21 15L21 16L20 16L20 17L19 17L19 14L20 14L20 12L22 12L22 11L23 11L23 8L22 8L22 7L23 7L23 6L22 6L22 7L21 7L21 6L20 6L20 8L19 8L19 6L18 6L18 8L17 8L17 6L16 6L16 5L15 5L15 4L14 4L14 3L13 3L13 4L12 4L12 2L13 2L13 1L15 1L15 3L16 3L16 4L18 4L18 3L19 3L19 1L20 1L20 2L21 2L21 3L22 3L22 5L23 5L23 4L24 4L24 3L25 3L25 0L19 0L19 1L18 1L18 3L16 3L16 2L17 2L17 1L15 1L15 0L13 0L13 1L11 1L11 2L10 2L10 0ZM22 1L22 3L23 3L23 2L24 2L24 1ZM10 3L10 4L11 4L11 3ZM13 4L13 5L14 5L14 4ZM19 4L19 5L21 5L21 4ZM8 5L8 7L9 7L9 5ZM13 6L13 8L14 8L14 9L15 9L15 10L17 10L17 8L14 8L14 6ZM15 6L15 7L16 7L16 6ZM0 8L0 13L2 13L2 11L1 11L1 9L5 9L5 8ZM18 8L18 9L19 9L19 10L18 10L18 11L16 11L16 12L15 12L15 11L12 11L12 12L14 12L14 13L13 13L13 16L12 16L12 13L11 13L11 12L10 12L10 13L11 13L11 15L10 15L10 16L11 16L11 17L13 17L13 18L14 18L14 19L13 19L13 20L12 20L12 18L10 18L10 17L9 17L9 16L8 16L8 17L9 17L9 19L10 19L10 20L9 20L9 21L8 21L8 19L6 19L6 20L5 20L5 19L4 19L4 21L5 21L5 22L4 22L4 23L5 23L5 24L7 24L7 23L8 23L8 22L10 22L10 20L11 20L11 21L13 21L13 22L14 22L14 23L13 23L13 24L12 24L12 22L11 22L11 25L10 25L10 23L9 23L9 26L10 26L10 28L9 28L9 29L10 29L10 28L11 28L11 29L13 29L13 28L14 28L14 30L16 30L16 31L17 31L17 32L20 32L20 31L22 31L22 32L23 32L23 29L24 29L24 30L25 30L25 31L26 31L26 32L27 32L27 31L28 31L28 32L29 32L29 31L30 31L30 30L29 30L29 29L28 29L28 30L27 30L27 29L26 29L26 30L25 30L25 29L24 29L24 27L23 27L23 26L22 26L22 25L24 25L24 24L26 24L26 23L28 23L28 22L29 22L29 23L30 23L30 22L31 22L31 21L30 21L30 20L28 20L28 19L24 19L24 18L23 18L23 19L24 19L24 20L23 20L23 21L22 21L22 20L21 20L21 19L20 19L20 18L21 18L21 17L22 17L22 16L21 16L21 17L20 17L20 18L17 18L17 17L16 17L16 16L18 16L18 14L19 14L19 12L20 12L20 11L21 11L21 10L20 10L20 9L21 9L21 8L20 8L20 9L19 9L19 8ZM8 9L8 10L9 10L9 9ZM8 11L8 12L7 12L7 13L8 13L8 14L7 14L7 15L9 15L9 13L8 13L8 12L9 12L9 11ZM16 12L16 13L18 13L18 12ZM14 13L14 14L15 14L15 15L14 15L14 16L13 16L13 17L14 17L14 18L15 18L15 19L14 19L14 20L13 20L13 21L14 21L14 22L15 22L15 23L16 23L16 24L15 24L15 25L14 25L14 24L13 24L13 25L11 25L11 26L13 26L13 25L14 25L14 26L15 26L15 27L14 27L14 28L15 28L15 29L19 29L19 30L17 30L17 31L19 31L19 30L22 30L22 29L23 29L23 28L22 28L22 26L21 26L21 27L20 27L20 28L19 28L19 26L20 26L20 25L21 25L21 24L22 24L22 23L21 23L21 22L22 22L22 21L21 21L21 20L20 20L20 19L18 19L18 20L17 20L17 18L15 18L15 17L14 17L14 16L16 16L16 14L15 14L15 13ZM24 15L24 16L25 16L25 17L26 17L26 16L27 16L27 15ZM1 16L1 17L2 17L2 19L3 19L3 16ZM5 17L5 18L7 18L7 17ZM28 17L28 18L29 18L29 17ZM15 19L15 20L14 20L14 21L15 21L15 22L16 22L16 23L17 23L17 24L19 24L19 25L15 25L15 26L19 26L19 25L20 25L20 24L21 24L21 23L20 23L20 22L21 22L21 21L20 21L20 20L19 20L19 21L15 21L15 20L16 20L16 19ZM31 19L31 20L32 20L32 19ZM6 20L6 21L7 21L7 22L5 22L5 23L7 23L7 22L8 22L8 21L7 21L7 20ZM24 20L24 21L23 21L23 22L24 22L24 21L25 21L25 23L26 23L26 20ZM27 20L27 21L28 21L28 20ZM2 21L2 22L3 22L3 21ZM19 21L19 22L18 22L18 23L19 23L19 22L20 22L20 21ZM29 21L29 22L30 22L30 21ZM23 23L23 24L24 24L24 23ZM25 25L25 28L28 28L28 25ZM26 26L26 27L27 27L27 26ZM29 26L29 27L31 27L31 26ZM17 27L17 28L18 28L18 27ZM20 28L20 29L22 29L22 28ZM32 28L32 29L33 29L33 28ZM13 32L13 33L14 33L14 32ZM0 0L0 7L7 7L7 0ZM1 1L1 6L6 6L6 1ZM2 2L2 5L5 5L5 2ZM26 0L26 7L33 7L33 0ZM27 1L27 6L32 6L32 1ZM28 2L28 5L31 5L31 2ZM0 26L0 33L7 33L7 26ZM1 27L1 32L6 32L6 27ZM2 28L2 31L5 31L5 28Z" fill="#000000"/></g></g></svg>
