<?xml version="1.0" encoding="UTF-8"?>
<svg xmlns="http://www.w3.org/2000/svg" version="1.1" width="300" height="300" viewBox="0 0 300 300"><rect x="0" y="0" width="300" height="300" fill="#ffffff"/><g transform="scale(9.091)"><g transform="translate(0,0)"><path fill-rule="evenodd" d="M9 0L9 1L8 1L8 2L9 2L9 3L8 3L8 4L10 4L10 7L11 7L11 4L12 4L12 5L13 5L13 4L14 4L14 5L15 5L15 6L14 6L14 7L15 7L15 6L16 6L16 7L17 7L17 6L16 6L16 5L15 5L15 4L17 4L17 2L19 2L19 3L20 3L20 2L19 2L19 0L18 0L18 1L15 1L15 0L14 0L14 1L15 1L15 4L14 4L14 3L13 3L13 4L12 4L12 2L13 2L13 1L11 1L11 2L10 2L10 0ZM20 0L20 1L21 1L21 3L22 3L22 5L23 5L23 4L24 4L24 3L25 3L25 0ZM22 1L22 3L23 3L23 2L24 2L24 1ZM10 3L10 4L11 4L11 3ZM18 4L18 5L19 5L19 4ZM20 4L20 7L21 7L21 9L20 9L20 10L21 10L21 11L20 11L20 12L19 12L19 13L18 13L18 14L14 14L14 13L12 13L12 11L13 11L13 10L11 10L11 11L10 11L10 9L11 9L11 8L6 8L6 9L7 9L7 10L5 10L5 11L3 11L3 12L4 12L4 14L2 14L2 13L1 13L1 11L0 11L0 13L1 13L1 14L0 14L0 17L2 17L2 18L1 18L1 19L0 19L0 20L1 20L1 21L0 21L0 25L1 25L1 22L2 22L2 23L3 23L3 24L2 24L2 25L8 25L8 27L9 27L9 25L8 25L8 24L11 24L11 23L10 23L10 21L12 21L12 22L13 22L13 23L12 23L12 25L13 25L13 24L14 24L14 25L19 25L19 26L18 26L18 27L19 27L19 26L20 26L20 25L21 25L21 24L22 24L22 23L21 23L21 22L22 22L22 21L23 21L23 22L24 22L24 21L25 21L25 23L26 23L26 24L24 24L24 23L23 23L23 24L24 24L24 25L22 25L22 26L21 26L21 27L20 27L20 28L17 28L17 27L16 27L16 26L15 26L15 27L14 27L14 28L17 28L17 29L19 29L19 30L15 30L15 29L12 29L12 27L13 27L13 26L11 26L11 28L8 28L8 33L9 33L9 29L10 29L10 30L11 30L11 29L12 29L12 30L13 30L13 31L12 31L12 33L13 33L13 32L14 32L14 33L20 33L20 32L22 32L22 33L29 33L29 32L30 32L30 33L32 33L32 32L31 32L31 30L33 30L33 27L32 27L32 26L33 26L33 24L32 24L32 25L31 25L31 22L33 22L33 21L32 21L32 20L33 20L33 19L32 19L32 18L31 18L31 19L30 19L30 17L29 17L29 16L31 16L31 17L33 17L33 16L32 16L32 15L30 15L30 13L29 13L29 12L31 12L31 14L33 14L33 13L32 13L32 12L33 12L33 11L32 11L32 10L33 10L33 9L32 9L32 8L31 8L31 9L30 9L30 8L29 8L29 9L30 9L30 10L28 10L28 12L27 12L27 11L26 11L26 10L27 10L27 9L28 9L28 8L27 8L27 9L26 9L26 8L25 8L25 6L24 6L24 9L26 9L26 10L25 10L25 14L26 14L26 12L27 12L27 13L29 13L29 14L28 14L28 15L29 15L29 16L28 16L28 17L27 17L27 18L24 18L24 17L23 17L23 16L22 16L22 15L23 15L23 13L21 13L21 14L22 14L22 15L21 15L21 16L20 16L20 17L18 17L18 18L17 18L17 19L18 19L18 18L20 18L20 19L19 19L19 20L15 20L15 19L16 19L16 18L15 18L15 19L14 19L14 20L15 20L15 21L12 21L12 19L13 19L13 18L11 18L11 19L10 19L10 20L8 20L8 21L7 21L7 20L6 20L6 19L9 19L9 17L10 17L10 16L11 16L11 15L9 15L9 14L11 14L11 13L12 13L12 14L13 14L13 15L12 15L12 17L13 17L13 16L14 16L14 17L17 17L17 16L16 16L16 15L18 15L18 16L19 16L19 15L18 15L18 14L20 14L20 12L22 12L22 11L23 11L23 8L22 8L22 7L23 7L23 6L22 6L22 7L21 7L21 4ZM8 5L8 7L9 7L9 5ZM12 6L12 9L14 9L14 10L15 10L15 12L17 12L17 11L16 11L16 10L15 10L15 9L17 9L17 8L15 8L15 9L14 9L14 8L13 8L13 6ZM18 6L18 8L19 8L19 6ZM0 8L0 9L3 9L3 10L4 10L4 9L5 9L5 8ZM8 9L8 11L5 11L5 12L8 12L8 13L6 13L6 14L9 14L9 12L8 12L8 11L9 11L9 9ZM18 9L18 10L19 10L19 9ZM10 12L10 13L11 13L11 12ZM3 15L3 19L1 19L1 20L2 20L2 21L3 21L3 23L6 23L6 24L7 24L7 23L8 23L8 22L9 22L9 21L8 21L8 22L7 22L7 21L6 21L6 22L4 22L4 21L5 21L5 20L4 20L4 21L3 21L3 19L5 19L5 18L7 18L7 17L8 17L8 16L7 16L7 15ZM14 15L14 16L15 16L15 15ZM24 15L24 16L25 16L25 17L26 17L26 16L27 16L27 15ZM4 16L4 17L5 17L5 16ZM6 16L6 17L7 17L7 16ZM21 16L21 17L20 17L20 18L21 18L21 17L22 17L22 16ZM28 17L28 18L29 18L29 17ZM23 18L23 19L24 19L24 20L23 20L23 21L24 21L24 20L26 20L26 23L28 23L28 22L29 22L29 23L30 23L30 22L31 22L31 21L30 21L30 20L28 20L28 19L24 19L24 18ZM20 19L20 20L19 20L19 21L20 21L20 22L17 22L17 21L15 21L15 22L17 22L17 23L14 23L14 24L18 24L18 23L19 23L19 25L20 25L20 24L21 24L21 23L20 23L20 22L21 22L21 21L22 21L22 20L21 20L21 19ZM31 19L31 20L32 20L32 19ZM20 20L20 21L21 21L21 20ZM27 20L27 21L28 21L28 20ZM29 21L29 22L30 22L30 21ZM6 22L6 23L7 23L7 22ZM25 25L25 28L28 28L28 25ZM22 26L22 28L20 28L20 29L22 29L22 30L19 30L19 32L20 32L20 31L22 31L22 32L23 32L23 29L24 29L24 30L25 30L25 31L26 31L26 32L27 32L27 31L28 31L28 32L29 32L29 31L30 31L30 30L29 30L29 29L28 29L28 30L27 30L27 29L26 29L26 30L25 30L25 29L24 29L24 27L23 27L23 26ZM26 26L26 27L27 27L27 26ZM29 26L29 27L31 27L31 28L30 28L30 29L31 29L31 28L32 28L32 27L31 27L31 26ZM22 28L22 29L23 29L23 28ZM14 31L14 32L18 32L18 31ZM0 0L0 7L7 7L7 0ZM1 1L1 6L6 6L6 1ZM2 2L2 5L5 5L5 2ZM26 0L26 7L33 7L33 0ZM27 1L27 6L32 6L32 1ZM28 2L28 5L31 5L31 2ZM0 26L0 33L7 33L7 26ZM1 27L1 32L6 32L6 27ZM2 28L2 31L5 31L5 28Z" fill="#000000"/></g></g></svg>
